# xmcd
#
# Track frame offsets: 
#        182
#        11262
#        23560
#        37977
#        55577
#        66197
#        79622
#        94525
#        111112
#        125030
#        139665
#
# Disc length: 2100 seconds
#
# Revision: 7
# Processed by: cddbd v1.5.2PL0 Copyright (c) Steve Scherf et al.
# Submitted via: ExactAudioCopy v0.99pb5
#
DISCID=7d08320b
DTITLE=Ronstadt, Linda - Greatest Hits Volume Two
DYEAR=1980
DGENRE=Country
TTITLE0=It's So Easy
TTITLE1=I Can't Let Go
TTITLE2=Hurt So Bad
TTITLE3=Blue Bayou
TTITLE4=How Do I Make You
TTITLE5=Back In The U.S.A
TTITLE6=Ooh Baby Baby
TTITLE7=Poor Poor Pitiful Me
TTITLE8=Tumbling Dice
TTITLE9=Just One Look
TTITLE10=Someone To Lay Down Beside Me
EXTD=
EXTT0=
EXTT1=
EXTT2=
EXTT3=
EXTT4=
EXTT5=
EXTT6=
EXTT7=
EXTT8=
EXTT9=
EXTT10=
PLAYORDER=
